<?xml version="1.0" encoding="UTF-8" standalone="no"?>
<svg
    xmlns:svg="http://www.w3.org/2000/svg"
    xmlns="http://www.w3.org/2000/svg"
    xmlns:xlink="http://www.w3.org/1999/xlink"
    viewBox="0 0 1200 512"
    height="512"
    width="1200"
    version="1.1">
    <defs>
        <linearGradient id="logo-stripe-orange-gradient" x1="25%" y1="0%" x2="75%" y2="100%">
            <stop offset="0%"   style="stop-color:#ff7d42;" />
            <stop offset="100%" style="stop-color:#ff3507;" />
        </linearGradient>
        <linearGradient id="logo-stripe-green-gradient" x1="25%" y1="0%" x2="75%" y2="100%">
            <stop offset="0%"   style="stop-color:#96e14e;" />
            <stop offset="100%" style="stop-color:#6ac306;" />
        </linearGradient>
        <linearGradient id="logo-stripe-blue-gradient" x1="25%" y1="0%" x2="75%" y2="100%">
            <stop offset="0%"   style="stop-color:#68e8e5;" />
            <stop offset="100%" style="stop-color:#0cc8c9;" />
        </linearGradient>
        <path id="logo-stripe" d="M 0,0 310,512 566,512 256,0 Z" />
    </defs>
    <path fill="#ffffff"
      d="m 1009.5481,234.09509 57.6,0 91.08,240.12 -75.6,0 -7.92,-21.6 -72.72,0 -7.92001,21.6 -75.6,0 91.08001,-240.12 z m 45,165.6 -16.2,-42.12 -16.2,42.12 32.4,0 z m -82.44001,45.72 6.84,-18 118.80001,0 6.84,18 10.08,0 -69.48,-182.52 -13.68,0 -69.48001,182.52 10.08,0 z m 66.24001,-173.88 56.16,147.24 -112.32001,0 56.16001,-147.24 z"
      id="roba-a" />

    <use x="507" y="0" fill="url(#logo-stripe-blue-gradient)" xlink:href="#logo-stripe"/>
    <path fill="#ffffff"
        d="m 649.14441,150.43134 c 0,-11.52 1.92,-22.32 5.76,-32.4 4.08,-10.08 9.72,-18.84 16.92,-26.28 7.2,-7.44 15.96,-13.32 26.28,-17.64 10.32,-4.32 21.84,-6.48 34.56,-6.48 6.24,0 11.76,0.48 16.56,1.44 5.04,0.72 9.24,1.68 12.6,2.88 4.08,1.2 7.56,2.64 10.44,4.32 l 5.04,-8.64 c -3.84,-1.68 -7.92,-3.24 -12.24,-4.68 -4.08,-1.2 -8.76,-2.28 -14.04,-3.24 -5.28,-0.96 -11.4,-1.44 -18.36,-1.44 -12.24,0 -24,2.16 -35.28,6.48 -11.04,4.32 -20.88,10.56 -29.52,18.72 -8.4,7.92 -15.24,17.64 -20.52,29.16 -5.04,11.28 -7.56,23.88 -7.56,37.8 0,14.16 2.4,26.88 7.2,38.16 5.04,11.28 11.88,21 20.52,29.16 8.64,7.92 18.72,14.04 30.24,18.36 11.52,4.32 23.76,6.48 36.72,6.48 7.2,0 13.68,-0.6 19.44,-1.8 5.76,-1.2 10.68,-2.52 14.76,-3.96 4.56,-1.68 8.64,-3.6 12.24,-5.76 l -5.04,-8.64 c -3.12,2.16 -6.72,3.96 -10.8,5.4 -3.6,1.44 -7.92,2.76 -12.96,3.96 -5.04,0.96 -10.92,1.44 -17.64,1.44 -13.2,0 -25.08,-2.16 -35.64,-6.48 -10.56,-4.32 -19.56,-10.2 -27,-17.64 -7.2,-7.44 -12.84,-16.2 -16.92,-26.28 -3.84,-10.08 -5.76,-20.88 -5.76,-32.4 z m -45.36,0 c 0,-19.2 3.36,-36.48 10.08,-51.84 6.72,-15.6 15.84,-28.92 27.36,-39.96 11.52,-11.04 24.96,-19.44 40.32,-25.2 15.36,-6 31.68,-9 48.96,-9 13.68,0 25.8,1.32 36.36,3.96 10.8,2.64 20.04,5.64 27.72,9 8.88,3.84 16.56,8.04 23.04,12.6 l -37.8,66.6 c -3.84,-2.88 -8.04,-5.64 -12.6,-8.28 -4.08,-1.92 -9,-3.72 -14.76,-5.4 -5.52,-1.92 -11.88,-2.88 -19.08,-2.88 -7.44,0 -14.28,1.32 -20.52,3.96 -6.24,2.64 -11.76,6.24 -16.56,10.8 -4.56,4.56 -8.16,9.96 -10.8,16.2 -2.64,6 -3.96,12.48 -3.96,19.44 0,6.96 1.32,13.56 3.96,19.8 2.88,6 6.72,11.28 11.52,15.84 4.8,4.56 10.44,8.16 16.92,10.8 6.48,2.64 13.56,3.96 21.24,3.96 7.68,0 14.52,-0.96 20.52,-2.88 6,-1.92 11.04,-4.08 15.12,-6.48 4.8,-2.64 9,-5.76 12.6,-9.36 l 37.8,66.6 c -6.48,5.28 -23.04,10.04 -23.04,10.04 l -25.37443,1.61175 -2.34557,11.74825 c 0,0 -23.16,4.32 -37.08,4.32 -18.72,0 -36,-3 -51.84,-9 -15.84,-6.24 -29.52,-14.88 -41.04,-25.92 -11.52,-11.04 -20.52,-24.24 -27,-39.6 -6.48,-15.6 -9.72,-32.76 -9.72,-51.48 z"
        id="doc-c" />
    <path fill="#ffffff"
        d="m 737.35739,260.09509 58.98,-28 34.98,0 c 12,0 22.92,1.44 32.76,4.32 10.08,2.64 18.6,6.72 25.56,12.24 7.2,5.28 12.72,12 16.56,20.16 4.08,7.92 6.12,17.28 6.12,28.08 0,7.68 -0.96,14.28 -2.88,19.8 -1.92,5.28 -3.96,9.72 -6.12,13.32 -2.64,4.32 -5.64,7.92 -9,10.8 5.28,3.36 10.08,7.68 14.4,12.96 3.6,4.56 6.84,10.32 9.72,17.28 3.12,6.96 4.68,15.48 4.68,25.56 0,11.52 -2.04,21.96 -6.12,31.32 -4.08,9.36 -9.96,17.4 -17.64,24.12 -7.44,6.48 -16.68,11.52 -27.72,15.12 -10.8,3.36 -22.92,5.04 -36.36,5.04 l -97.92,0 z m 82.8,155.6 c 18.24,0 27.36,-6.96 27.36,-20.88 0,-13.92 -9.12,-20.88 -27.36,-20.88 l -8.64,0 0,41.76 z m 18,-110.52 c 0,-11.04 -6,-16.56 -18,-16.56 l -8.64,0 0,33.12 8.64,0 c 12,0 18,-5.52 18,-16.56 z m -12.96,138.24 c 21.12,0 36.72,-4.56 46.8,-13.68 10.08,-9.12 15.12,-21.24 15.12,-36.36 0,-9.84 -2.16,-17.64 -6.48,-23.4 -4.08,-6 -8.52,-10.68 -13.32,-14.04 -6,-3.84 -12.6,-6.48 -19.8,-7.92 5.76,-1.68 10.92,-4.32 15.48,-7.92 4.08,-3.12 7.68,-7.32 10.8,-12.6 3.36,-5.52 5.04,-12.48 5.04,-20.88 0,-15.12 -4.8,-26.52 -14.4,-34.2 -9.6,-7.68 -22.68,-11.52 -39.24,-11.52 l -51.84,0 0,182.52 z m -42.48,-8.64 0,-82.44 42.12,0 c 7.44,0 14.28,0.84 20.52,2.52 6.48,1.44 12.12,3.84 16.92,7.2 4.8,3.12 8.52,7.32 11.16,12.6 2.88,5.28 4.32,11.52 4.32,18.72 0,14.64 -4.92,25.2 -14.76,31.68 -9.6,6.48 -22.32,9.72 -38.16,9.72 z m 0,-91.08 0,-74.16 42.48,0 c 15.6,0 26.76,3.48 33.48,10.44 6.96,6.72 10.44,15.6 10.44,26.64 0,11.04 -3.48,20.04 -10.44,27 -6.72,6.72 -17.88,10.08 -33.48,10.08 z"
        id="roba-b" />

    <use x="254" y="0" fill="url(#logo-stripe-green-gradient)" xlink:href="#logo-stripe"/>
    <path fill="#ffffff"
      d="m 338.2033,149.2233 q 0,-25.92 9.72,-48.96 10.08,-23.039998 27,-39.959998 17.28,-17.28 40.32,-27 23.04,-10.08 48.96,-10.08 25.92,0 48.96,10.08 23.04,9.72 39.96,27 17.28,16.92 27,39.959998 10.08,23.04 10.08,48.96 0,25.92 -10.08,48.96 -9.72,23.04 -27,40.32 -16.92,16.92 -39.96,27 -23.04,9.72 -48.96,9.72 -25.92,0 -48.96,-9.72 -23.04,-10.08 -40.32,-27 -16.92,-17.28 -27,-40.32 -9.72,-23.04 -9.72,-48.96 z m 33.84,0 q 0,19.08 7.2,36 7.2,16.56 19.8,29.16 12.6,12.6 29.16,19.8 16.92,7.2 36,7.2 19.08,0 35.64,-7.2 16.92,-7.2 29.52,-19.8 12.6,-12.6 19.8,-29.16 7.2,-16.92 7.2,-36 0,-19.08 -7.2,-35.64 -7.2,-16.919998 -19.8,-29.519998 -12.6,-12.6 -29.52,-19.8 -16.56,-7.2 -35.64,-7.2 -19.08,0 -36,7.2 -16.56,7.2 -29.16,19.8 -12.6,12.6 -19.8,29.519998 -7.2,16.56 -7.2,35.64 z m 41.76,0 q 0,10.44 3.96,19.8 3.96,9 10.8,15.84 6.84,6.84 15.84,10.8 9.36,3.96 19.8,3.96 10.44,0 19.44,-3.96 9.36,-3.96 16.2,-10.8 6.84,-6.84 10.8,-15.84 3.96,-9.36 3.96,-19.8 0,-10.44 -3.96,-19.44 -3.96,-9.36 -10.8,-16.2 -6.84,-6.84 -16.2,-10.8 -9,-3.959998 -19.44,-3.959998 -10.44,0 -19.8,3.959998 -9,3.96 -15.84,10.8 -6.84,6.84 -10.8,16.2 -3.96,9 -3.96,19.44 z m 50.4,82.8 q -17.28,0 -32.4,-6.48 -14.76,-6.48 -26.28,-17.64 -11.16,-11.52 -17.64,-26.28 -6.48,-15.12 -6.48,-32.4 0,-17.28 6.48,-32.04 6.48,-15.12 17.64,-26.279998 11.52,-11.52 26.28,-18 15.12,-6.48 32.4,-6.48 17.28,0 32.04,6.48 15.12,6.48 26.28,18 11.52,11.159998 18,26.279998 6.48,14.76 6.48,32.04 0,17.28 -6.48,32.4 -6.48,14.76 -18,26.28 -11.16,11.16 -26.28,17.64 -14.76,6.48 -32.04,6.48 z"
      id="doc-o" />
    <path fill="#ffffff"
      d="m 466.60442,351.87879 q 0,-25.92 9.72,-48.96 10.08,-23.04 27,-39.96 17.28,-17.28 40.32,-27 23.04,-10.08 48.96,-10.08 25.92,0 48.96,10.08 23.04,9.72 39.96,27 17.28,16.92 27,39.96 10.08,23.04 10.08,48.96 0,25.92 -10.08,48.96 -9.72,23.04 -27,40.32 -16.92,16.92 -39.96,27 -23.04,9.72 -48.96,9.72 -25.92,0 -48.96,-9.72 -23.04,-10.08 -40.32,-27 -16.92,-17.28 -27,-40.32 -9.72,-23.04 -9.72,-48.96 z m 33.84,0 q 0,19.08 7.2,36 7.2,16.56 19.8,29.16 12.6,12.6 29.16,19.8 16.92,7.2 36,7.2 19.08,0 35.64,-7.2 16.92,-7.2 29.52,-19.8 12.6,-12.6 19.8,-29.16 7.2,-16.92 7.2,-36 0,-19.08 -7.2,-35.64 -7.2,-16.92 -19.8,-29.52 -12.6,-12.6 -29.52,-19.8 -16.56,-7.2 -35.64,-7.2 -19.08,0 -36,7.2 -16.56,7.2 -29.16,19.8 -12.6,12.6 -19.8,29.52 -7.2,16.56 -7.2,35.64 z m 41.76,0 q 0,10.44 3.96,19.8 3.96,9 10.8,15.84 6.84,6.84 15.84,10.8 9.36,3.96 19.8,3.96 10.44,0 19.44,-3.96 9.36,-3.96 16.2,-10.8 6.84,-6.84 10.8,-15.84 3.96,-9.36 3.96,-19.8 0,-10.44 -3.96,-19.44 -3.96,-9.36 -10.8,-16.2 -6.84,-6.84 -16.2,-10.8 -9,-3.96 -19.44,-3.96 -10.44,0 -19.8,3.96 -9,3.96 -15.84,10.8 -6.84,6.84 -10.8,16.2 -3.96,9 -3.96,19.44 z m 50.4,82.8 q -17.28,0 -32.4,-6.48 -14.76,-6.48 -26.28,-17.64 -11.16,-11.52 -17.64,-26.28 -6.48,-15.12 -6.48,-32.4 0,-17.28 6.48,-32.04 6.48,-15.12 17.64,-26.28 11.52,-11.52 26.28,-18 15.12,-6.48 32.4,-6.48 17.28,0 32.04,6.48 15.12,6.48 26.28,18 11.52,11.16 18,26.28 6.48,14.76 6.48,32.04 0,17.28 -6.48,32.4 -6.48,14.76 -18,26.28 -11.16,11.16 -26.28,17.64 -14.76,6.48 -32.04,6.48 z"
      id="roba-o" />

    <use x="0"   y="0" fill="url(#logo-stripe-orange-gradient)" xlink:href="#logo-stripe"/>
    <path fill="#ffffff"
        d="m 114.86742,190.05702 0,-160.617419 66.6,0 c 22.56,0 42.6,2.52 60.12,7.56 17.76,5.04 32.64,12.6 44.64,22.68 12.24,10.08 21.48,22.68 27.72,37.8 6.48,14.879999 9.72,32.159999 9.72,51.839999 0,19.68 -3.24,37.08 -9.72,52.2 -6.24,14.88 -15.48,27.36 -27.72,37.44 -12,10.08 -26.88,17.76 -44.64,23.04 -17.52,5.04 -37.56,7.56 -60.12,7.56 l -18.38186,0 z m 45.36,42.06258 0,-165.239999 21.24,0 c 30.48,0 54.12,6.96 70.92,20.88 17.04,13.679999 25.56,34.199999 25.56,61.559999 0,27.36 -8.52,48 -25.56,61.92 -16.8,13.92 -40.44,20.88 -70.92,20.88 z m -9.36,8.64 30.6,0 c 35.04,0 61.44,-7.92 79.2,-23.76 18,-16.08 27,-38.64 27,-67.68 0,-29.04 -9,-51.48 -27,-67.319999 -17.76,-15.84 -44.16,-23.76 -79.2,-23.76 l -30.6,0 z m 40.68,-39.6 c 18,0 31.92,-4.2 41.76,-12.6 9.84,-8.64 14.76,-21.72 14.76,-39.24 0,-17.52 -4.92,-30.48 -14.76,-38.88 -9.84,-8.4 -23.76,-12.599999 -41.76,-12.599999 z"
        id="doc-d" />
    <path fill="#ffffff"
        d="m 336.14855,390.01064 c 9.36,0 18.48,-0.96 27.36,-2.88 l 34.2,57.6 11.16,0 -36,-60.48 c 12.96,-4.56 23.28,-11.52 30.96,-20.88 7.68,-9.6 11.52,-21.96 11.52,-37.08 0,-10.56 -2.04,-19.8 -6.12,-27.72 -4.08,-7.92 -9.72,-14.52 -16.92,-19.8 -6.96,-5.52 -15.24,-9.6 -24.84,-12.24 -9.6,-2.88 -20.04,-4.32 -31.32,-4.32 l -38.88,0 0,182.52 9.36,0 0,-54.72 z m -29.52,-8.64 0,-110.52 29.52,0 c 21.84,0 38.88,4.8 51.12,14.4 12.48,9.6 18.72,23.28 18.72,41.04 0,17.76 -6.24,31.44 -18.72,41.04 -12.24,9.36 -29.28,14.04 -51.12,14.04 z m -45.36,-147.96 82.8,0 c 15.36,0 29.52,2.04 42.48,6.12 13.2,4.08 24.6,10.08 34.2,18 9.6,7.92 17.04,17.76 22.32,29.52 5.52,11.52 8.28,24.84 8.28,39.96 0,12 -1.68,22.2 -5.04,30.6 -3.36,8.4 -7.08,15.36 -11.16,20.88 -4.8,6.24 -10.2,11.52 -16.2,15.84 l 45,79.2 -90,0 -36,-60.84 0,60.84 -51.34078,0 -25.33922,-42.01639 z m 76.68,118.08 3.96,0 c 9.12,0 16.8,-2.04 23.04,-6.12 6.48,-4.08 9.72,-10.92 9.72,-20.52 0,-9.6 -3.24,-16.44 -9.72,-20.52 -6.24,-4.08 -13.92,-6.12 -23.04,-6.12 l -3.96,0 z"
        id="roba-r" />

</svg>
