<?xml version="1.0" encoding="UTF-8" standalone="no"?>
<svg
   xmlns:dc="http://purl.org/dc/elements/1.1/"
   xmlns:cc="http://creativecommons.org/ns#"
   xmlns:rdf="http://www.w3.org/1999/02/22-rdf-syntax-ns#"
   xmlns:svg="http://www.w3.org/2000/svg"
   xmlns="http://www.w3.org/2000/svg"
   xmlns:xlink="http://www.w3.org/1999/xlink"
   background-color="#0000ff"
   id="svg4183"
   version="1.1"
   width="1200"
   height="512"
   viewBox="0 0 1200 512">
  <metadata
     id="metadata4213">
    <rdf:RDF>
      <cc:Work
         rdf:about="">
        <dc:format>image/svg+xml</dc:format>
        <dc:type
           rdf:resource="http://purl.org/dc/dcmitype/StillImage" />
        <dc:title></dc:title>
      </cc:Work>
    </rdf:RDF>
  </metadata>
  <defs
     id="defs4185">
    <linearGradient
       y2="1"
       x2="0.75"
       y1="0"
       x1="0.25"
       id="logo-stripe-orange-gradient">
      <stop
         id="stop4188"
         style="stop-color:#ff7d42;"
         offset="0%" />
      <stop
         id="stop4190"
         style="stop-color:#ff3507;"
         offset="100%" />
    </linearGradient>
    <linearGradient
       y2="1"
       x2="0.75"
       y1="0"
       x1="0.25"
       id="logo-stripe-green-gradient">
      <stop
         id="stop4193"
         style="stop-color:#96e14e;"
         offset="0%" />
      <stop
         id="stop4195"
         style="stop-color:#6ac306;"
         offset="100%" />
    </linearGradient>
    <linearGradient
       y2="1"
       x2="0.75"
       y1="0"
       x1="0.25"
       id="logo-stripe-blue-gradient">
      <stop
         id="stop4198"
         style="stop-color:#68e8e5;"
         offset="0%" />
      <stop
         id="stop4200"
         style="stop-color:#0cc8c9;"
         offset="100%" />
    </linearGradient>
    <path
       d="M 0,0 310,512 566,512 256,0 Z"
       id="logo-stripe" />
  </defs>
  <use
     height="100%"
     width="100%"
     id="orange-stripe"
     xlink:href="#logo-stripe"
     style="fill:url(#logo-stripe-orange-gradient)"
     y="0"
     x="0" />
  <use
     height="100%"
     width="100%"
     id="green-stripe"
     xlink:href="#logo-stripe"
     style="fill:url(#logo-stripe-green-gradient)"
     y="0"
     x="254" />
  <use
     height="100%"
     width="100%"
     id="blue-stripe"
     xlink:href="#logo-stripe"
     style="fill:url(#logo-stripe-blue-gradient)"
     y="0"
     x="507" />
  <path
     id="old-letters"
     d="m 735.17998,23.744026 c 21.9618,0.02839 37.7526,3.680729 58.1504,12.984375 25.7066,11.7251 24.9886,10.671088 17.3301,25.404297 -13.5095,25.989292 -29.2547,52.674782 -31.0801,52.675782 -1.0313,7.4e-4 -4.4063,-1.69341 -7.5,-3.76367 -6.6849,-4.47336 -22.5938,-9.76591 -32.375,-10.77149 -3.8503,-0.395822 -10.3149,-0.10156 -14.3672,0.6543 -41.6865,7.77566 -57.2545,56.1052 -27.1445,84.26953 20.446,19.12486 53.708,19.7073 79.209,1.38672 3.4217,-2.45821 6.6748,-4.00213 7.2304,-3.42969 0.5555,0.57245 6.7279,11.16602 13.7149,23.54102 6.987,12.375 13.2851,23.20313 13.9961,24.0625 0.908,1.09755 5.9887,1.56682 17.0761,1.57812 28.5749,0.0297 49.6769,6.62162 64.4668,20.13868 21.5591,19.70384 24.2822,58.87663 5.7207,82.3125 -2.077,2.6224 -3.7659,5.24932 -3.7519,5.83789 0.014,0.58857 3.435,4.43219 7.6016,8.54101 10.1242,9.98417 16.9147,23.74219 18.3554,37.18946 4.4489,41.52295 -16.8777,72.12748 -57.3554,82.30273 -8.5111,2.1395 -15.7704,2.76752 -38.3047,3.3125 -20.2487,0.48971 -28.2804,0.27499 -29.5625,-0.78906 -2.1942,-1.82098 -15.7598,-24.42967 -15.7598,-26.26563 0,-0.92157 8.9706,-1.35228 28.4375,-1.36718 39.236,-0.0299 50.044,-2.53071 62.8965,-14.55274 7.5858,-7.09569 11.616,-14.49509 13.7207,-25.19336 4.3365,-22.04199 -5.2327,-41.21702 -25.418,-50.93164 -4.6692,-2.2471 -8.4824,-4.44345 -8.4824,-4.88281 0,-0.43936 3.2834,-2.98658 7.2871,-5.66016 12.8535,-8.58321 19.0586,-20.28799 19.0586,-35.95117 0,-21.31653 -10.2116,-35.27462 -30.625,-41.85937 -8.1634,-2.63325 -10.929,-2.82227 -41.25,-2.82227 l -32.5,0 -0.3223,84.16406 c -0.2473,64.81854 -0.6662,84.04744 -1.8222,83.66211 -0.8256,-0.27519 -8.9693,-12.83475 -18.0977,-27.91211 l -16.5957,-27.41406 -0.332,-48.75 -0.3301,-48.75 -5,-0.32227 c -10.113,-0.65176 -26.463,-3.00946 -34.1074,-4.91796 -4.3217,-1.07892 -8.1549,-1.66361 -8.5176,-1.30079 -0.3629,0.36283 1.9454,4.4634 5.1289,9.11329 9.5678,13.9751 15.4191,26.81049 20.1953,44.30273 3.5205,12.89395 3.1867,44.72579 -0.6152,58.75 -12.2042,45.01699 -44.8607,78.52784 -88.959,91.28516 -12.0596,3.48877 -44.8729,4.58496 -57.5,1.92187 -8.609,-1.81565 -22.2906,-6.23682 -27.5,-8.88672 -2.1288,-1.08285 -14.431,-20.18074 -38.5898,-59.90625 l -35.4668,-58.31836 0.8418,-7.73437 c 2.1752,-20.01083 10.1839,-42.09799 21.3847,-58.97266 2.5527,-3.846 4.3392,-7.29563 3.9688,-7.66601 -0.3704,-0.37039 -6.8239,-0.058 -14.3399,0.69336 -9.9517,0.99484 -17.1372,0.98679 -26.4414,-0.0254 -7.0269,-0.76506 -13.0557,-1.10818 -13.3984,-0.76562 -0.3425,0.34256 1.0876,4.00988 3.1777,8.15039 8.7944,17.42139 12.3635,43.99545 8.4024,62.55664 -3.07,14.38556 -10.6758,28.72502 -21,39.59375 -5.0119,5.27622 -8.5428,10.01429 -8.1758,10.9707 0.3554,0.92591 9.9779,18.15069 21.3828,38.27735 11.4049,20.12665 20.4264,37.09492 20.0469,37.70898 -0.3834,0.62023 -19.7594,1.11719 -43.5899,1.11719 -38.313,0 -43.081,-0.2211 -44.6133,-2.06055 -0.9435,-1.13277 -8.7599,-13.92965 -17.3691,-28.4375 -8.6091,-14.50785 -16.203,-26.23671 -16.875,-26.0664 -0.7261,0.18401 -1.4743,11.59573 -1.8457,28.125 l -0.625,27.81445 -25.1797,0.33789 -25.1797,0.33789 -12.6328,-20.70312 -12.6328,-20.70118 0,-87.44921 c 0,-48.09629 -0.3681,-87.44727 -0.8184,-87.44727 -0.4502,0 -6.8931,1.96347 -14.3164,4.36328 -19.6575,6.35485 -34.2782,8.44347 -60.3242,8.61524 l -22.332,0.14648 -24.209,-40 -24.207,-40 -0.022,-79.78906 -0.021,-79.787114 49.0625,0.523438 c 52.7925,0.563545 60.0192,1.275257 81.4043,8.019531 39.4745,12.449229 65.073,38.970503 74.834,77.531255 2.401,9.48539 2.7768,14.18913 2.7168,34.12695 -0.063,20.92076 -0.3835,24.29253 -3.3633,35.37891 -3.917,14.57336 -9.9912,27.50566 -17.6797,37.64453 -3.0859,4.06953 -5.3217,7.86641 -4.9687,8.4375 0.353,0.57108 13.687,1.04287 29.6308,1.04687 37.0249,0.009 51.6049,2.14654 72.4258,10.61914 1.2987,0.52851 2.1875,0.32984 2.1875,-0.48828 0,-0.75789 -13.9205,-24.30152 -30.9355,-52.32031 -34.7007,-57.14245 -32.6631,-51.98223 -27.8926,-70.63477 11.8743,-46.427903 49.4599,-82.792632 96.0801,-92.95703 13.0473,-2.84465 38.8168,-2.817303 52.0078,0.05469 29.295,6.378135 57.5797,24.154259 74.2734,46.679688 11.5808,15.626272 20.5787,35.563232 23.8242,52.789062 2.1104,11.2009 0.8423,44.05074 -2.0996,54.375 -4.7949,16.82731 -9.522,27.29312 -17.9453,39.73633 -2.6945,3.98024 -4.6161,7.6968 -4.2695,8.25781 0.3468,0.56101 3.6022,0.53289 7.2324,-0.0625 3.6303,-0.59539 13.0683,-1.09231 20.9746,-1.10352 20.9969,-0.0306 33.7915,2.778 52.8301,11.59961 6.0257,2.79207 11.2934,4.73975 11.7051,4.32813 0.4116,-0.41163 -11.169,-20.32476 -25.7344,-44.25195 l -26.4824,-43.50391 0.6093,-15.625 c 1.2026,-30.83861 12.9761,-58.016485 34.5899,-79.845703 22.7637,-22.990579 50.4026,-34.59934 85.7617,-36.025391 3.4207,-0.13796 6.6829,-0.209134 9.8203,-0.20508 z m -271.1777,34.664063 c -7.7499,0.0031 -15.5143,0.638811 -20.959,1.90625 -30.869,7.185883 -55.9923,30.274712 -66.7891,61.380861 -3.1823,9.16819 -3.4673,11.50766 -3.4453,28.125 0.023,16.09448 0.3841,19.19928 3.2324,27.70898 4.5607,13.62608 11.2458,24.88304 20.8438,35.09766 13.7085,14.5895 29.1232,23.35308 48.9453,27.82617 10.0245,2.26213 31.133,1.62443 41.875,-1.26562 32.3776,-8.71098 59.5501,-37.22216 66.4355,-69.70703 2.8574,-13.48097 1.7491,-34.82121 -2.4824,-47.78516 -9.8807,-30.271718 -35.8361,-54.129847 -66.791,-61.396486 -5.3809,-1.263166 -13.1154,-1.893685 -20.8652,-1.890625 z m -287.4512,0.330078 c -2.5162,-0.01151 -5.0521,0.01173 -7.5957,0.06836 l -17.5,0.388672 -0.3242,89.375001 c -0.1779,49.15625 -0.055,90.07812 0.2734,90.9375 0.4421,1.15755 5.6414,1.5625 20.0606,1.5625 46.943,0 71.8798,-7.45682 91.8828,-27.47461 10.3809,-10.3886 17.1121,-22.0802 20.8808,-36.27539 3.0731,-11.57425 3.0871,-43.69214 0.025,-55 -8.0676,-29.795552 -30.0424,-50.844606 -61.3125,-58.726563 -12.0954,-3.048795 -28.7771,-4.77491 -46.3906,-4.855469 z m 559.6719,0.01367 c -2.5103,-0.01006 -5.0991,0.06103 -7.7988,0.208984 -25.9913,1.424379 -43.2514,8.929104 -60.8692,26.464844 -9.7438,9.698417 -12.2336,13.069543 -17.1133,23.183595 -12.9969,26.93622 -13.0012,57.01515 -0.014,83.71094 4.7529,9.76937 7.5725,13.66711 15.9023,21.98438 14.8421,14.81982 33.0021,23.77845 54.0762,26.67773 16.5696,2.27956 41.6382,-1.01324 54.0957,-7.10742 4.8975,-2.39582 6.3692,-6.42748 3.2812,-8.99024 -1.5815,-1.31254 -3.2957,-1.04603 -9.748,1.51953 -11.2513,4.47381 -19.4017,5.91602 -33.4336,5.91602 -16.0466,0 -28.1268,-2.62545 -41.2715,-8.97266 -21.1534,-10.2144 -37.4516,-31.68877 -41.8965,-55.19922 -8.8837,-46.99001 16.5264,-88.910556 60.0059,-98.99414 16.458,-3.816869 42.285,-2.131408 56.1601,3.666016 3.9165,1.63643 4.4647,1.588971 6.4082,-0.558594 3.251,-3.592232 1.4922,-5.686097 -7.1504,-8.511718 -10.3723,-3.391128 -19.757,-4.954438 -30.6347,-4.998047 z m -271.5899,8.501953 c 20.7812,0.03564 40.8006,8.333572 56.9317,24.382812 17.5751,17.485928 24.5371,33.993038 24.5371,58.183598 0,24.29383 -6.5567,40.01404 -24.0117,57.57422 -12.1737,12.24695 -22.8615,18.51974 -38.2715,22.46094 -19.1102,4.88757 -40.0709,2.33513 -58.3438,-7.10352 -12.8318,-6.62814 -28.7282,-22.76347 -34.9062,-35.43164 -6.3179,-12.95518 -8.7403,-23.34821 -8.7403,-37.5 0,-23.3236 7.2485,-40.75001 23.9708,-57.636723 8.5991,-8.683745 12.7081,-11.766833 21.2812,-15.960937 12.341,-6.037427 25.084,-8.990136 37.5527,-8.96875 z m -283.0449,0.226562 c 52.3692,-0.04581 83.9046,19.64789 93.7754,58.589848 3.0147,11.89367 2.685,36.40059 -0.6621,49.15625 -3.5613,13.57171 -8.017,21.27745 -18.2246,31.51953 -10.6873,10.72335 -22.1369,16.98542 -39.0977,21.38086 -9.9184,2.57036 -16.2711,3.28374 -34.2929,3.85156 l -22.1192,0.69727 -0.7265,-2.99024 c -0.3988,-1.64439 -0.5707,-38.70898 -0.3809,-82.36523 l 0.3457,-79.375004 16.25,-0.398438 c 1.7327,-0.04258 3.4435,-0.06493 5.1328,-0.06641 z m 10.8984,31.089846 -0.8183,49.298832 c -0.4496,27.11417 -0.4803,50.17667 -0.068,51.25 l 0,0 c 0.9068,2.36297 7.4553,2.57109 16.9824,0.53906 16.5535,-3.5307 28.2446,-12.11336 34.2676,-25.1543 3.412,-7.38751 3.6074,-8.72014 3.6074,-24.68359 0,-15.96345 -0.1954,-17.29608 -3.6074,-24.68359 -3.9188,-8.48493 -11.1536,-16.04915 -19.3535,-20.23243 -6.2207,-3.17359 -19.002,-6.291502 -25.8985,-6.316402 z m 271.4688,1.875002 c -11.3946,0 -13.2244,0.3437 -20.7012,3.88672 -15.351,7.27425 -26.1074,21.45459 -28.7578,37.91211 -3.813,23.67684 10.2702,47.16742 33.209,55.39258 9.5674,3.43059 27.6613,2.53308 37.1484,-1.84375 14.6765,-6.771 25.5718,-21.07538 28.6094,-37.56055 4.0143,-21.78648 -7.7496,-43.92648 -28.582,-53.79492 -7.7279,-3.66074 -9.4614,-3.99219 -20.9258,-3.99219 z m 574.37502,131.75391 c 13.7726,0.003 27.5651,0.56693 28.5,1.69336 2.1926,2.64194 90.2894,236.10346 89.5469,237.30468 -0.3832,0.62029 -16.5271,1.12305 -36.0918,1.12305 -27.9135,0 -35.6904,-0.35229 -36.7774,-1.66211 -0.7582,-0.91356 -2.8442,-5.55419 -4.6347,-10.3125 -1.7905,-4.7583 -3.5329,-8.93165 -3.8731,-9.27539 -0.3402,-0.34375 -8.8452,-0.90626 -18.9004,-1.25 l -18.2832,-0.625 -6.6172,-10.56445 c -3.6395,-5.80984 -6.1582,-11.02156 -5.5976,-11.58203 0.5603,-0.56044 17.0061,-0.86833 36.5469,-0.68555 l 35.5293,0.33203 3.2363,8.125 c 2.985,7.49159 3.5595,8.15525 7.3613,8.52734 2.2676,0.22196 4.6036,-0.0762 5.1914,-0.66406 0.8475,-0.84749 -46.2809,-127.34299 -64.0547,-171.92578 l -3.8632,-9.6875 -6.5821,0 c -3.7715,0 -7.1088,0.66712 -7.8183,1.5625 -0.681,0.85938 -9.843,24.34375 -20.3594,52.1875 -10.5165,27.84375 -19.80952,51.3869 -20.65242,52.31836 -1.2469,1.37801 -3.1889,-1.07502 -10.4199,-13.16797 -4.8877,-8.17414 -8.8867,-15.61783 -8.8867,-16.54101 0,-2.13046 37.51822,-101.44466 39.11722,-103.54688 0.8565,-1.12577 14.6102,-1.68626 28.3828,-1.68359 z m -447.92192,27.95507 c -1.3167,0.0284 -2.6341,0.0887 -3.9531,0.18164 -13.8729,0.97722 -23.0566,3.5442 -36.8066,10.29102 -9.7535,4.78581 -13.6857,7.66522 -22.625,16.55664 -18.3222,18.22438 -26.032,35.53878 -27.1192,60.9082 -0.8114,18.93374 1.41,29.9742 9.1016,45.24414 13.3986,26.60013 36.794,44.45966 65.664,50.125 l 0,0 c 3.0438,0.5966 10.1937,1.14729 15.8925,1.22266 42.4166,0.56046 79.6984,-28.11875 90.3399,-69.49414 3.3974,-13.19668 3.396,-32.49211 0,-45.72852 -10.3623,-40.38878 -49.6785,-70.18665 -90.4981,-69.30664 z m -261.3613,1.09571 c -2.7792,-0.007 -5.7197,0.0161 -8.8418,0.0684 l -22.5,0.37695 -0.3242,89.375 c -0.1779,49.15625 -0.055,90.07812 0.2734,90.9375 0.879,2.30167 7.7576,1.95316 8.6758,-0.43945 0.4226,-1.10079 0.399,-12.23006 -0.053,-24.73243 -0.5967,-16.51918 -0.416,-23.48727 0.6601,-25.49804 1.4323,-2.67628 2.1459,-2.7697 21.75,-2.8418 11.1477,-0.041 23.0731,-0.53536 26.502,-1.09766 3.4288,-0.5623 6.8038,-0.79364 7.5,-0.51367 0.6961,0.27996 8.7407,13.14935 17.8769,28.59766 l 16.6117,28.08785 4.9511,0 c 3.1409,0 4.9418,-0.57128 4.9258,-1.5625 -0.014,-0.85938 -7.5743,-14.18636 -16.8008,-29.61523 -9.2265,-15.42889 -16.5543,-28.40813 -16.2851,-28.84375 0.2693,-0.43564 4.1989,-2.67548 8.7324,-4.97657 21.2174,-10.76932 31.8789,-28.75768 31.8789,-53.78711 0,-28.02581 -15.053,-48.16413 -43.3828,-58.03906 -11.1157,-3.87464 -22.6961,-5.44415 -42.1504,-5.49609 z m -6.4824,8.6289 c 14.1383,-0.006 33.6809,1.13742 40.1406,2.91797 17.5255,4.83071 32.6427,16.21259 38.1895,28.75196 6.1966,14.00843 5.9902,33.40459 -0.504,47.58984 -6.4821,14.1589 -22.5438,24.85229 -43.1367,28.71875 -6.7031,1.25858 -17.5237,1.96289 -30.1777,1.96289 -16.8364,0 -19.8407,-0.28915 -20.4883,-1.97656 -1.1895,-3.0999 -0.8489,-104.69377 0.3574,-106.59766 0.598,-0.94376 7.1362,-1.3633 15.6192,-1.36719 z m 267.8125,0.11329 c 12.6785,-0.099 25.557,2.85844 37.9511,8.92578 20.13,9.85428 37.3678,31.07411 43.0176,52.95703 2.6026,10.07426 2.6017,30.82834 0,40.86914 -7,27.01372 -28.0646,49.18218 -55.4062,58.3125 l 0,0 c -10.7507,3.59003 -30.0992,4.42413 -41.9844,1.80859 -29.7415,-6.54507 -54.8932,-31.14716 -62.4863,-61.11914 -2.423,-9.56446 -2.423,-29.2871 0,-38.85156 4.6833,-18.4862 16.9225,-36.3907 32.4551,-47.47461 14.1837,-10.12129 30.1542,-15.30045 46.4551,-15.42773 z m 192.3281,0.45312 29.4062,0 29.4063,0 8.3086,4.0918 c 6.3448,3.12542 9.2049,5.44825 12.1035,9.82422 5.5778,8.4209 6.7703,13.20946 6.1406,24.67773 -1.0316,18.78659 -9.9518,29.25101 -28.2382,33.12695 -3.6432,0.77221 -17.836,1.4043 -31.5391,1.4043 -24.8004,0 -24.9175,-0.0129 -25.6016,-2.8125 -0.3774,-1.54687 -0.5309,-18 -0.3379,-36.5625 z m 255.94532,3.43945 c 1.0218,0.34063 54.5843,138.76725 54.6543,141.24805 0.014,0.51562 -17.0463,0.9375 -37.9121,0.9375 l -37.9375,0 -10.1875,-16.71875 c -5.603,-9.19493 -10.18752,-17.42702 -10.18752,-18.29492 0,-3.27025 40.44702,-107.5463 41.57032,-107.17188 z m -220.41412,14.59766 c -2.6096,-0.004 -4.8013,0.483 -5.9062,1.58789 -2.112,2.1115 -2.0578,28.67551 0.062,30.86133 2.086,2.15062 13.9334,0.80718 19.0215,-2.15625 7.0614,-4.1126 8.6775,-17.28959 3.0058,-24.5 -2.6767,-3.403 -10.4424,-5.78516 -16.1836,-5.79297 z m -474.33,8.85742 c -3.2748,-0.005 -5.5654,0.64624 -6.0684,1.95703 -1.0988,2.86365 -0.9336,48.67625 0.1797,49.82227 0.5156,0.53079 4.5938,0.70773 9.0625,0.39453 20.22,-1.41713 31.1908,-15.72332 26.1055,-34.04102 -1.9588,-7.05563 -9.0867,-13.70601 -17.3047,-16.14648 -4.4405,-1.3187 -8.6999,-1.9811 -11.9746,-1.98633 z m 247.5761,4.98047 c -37.4842,0 -61.6502,38.93099 -44.9218,72.36914 7.2037,14.39952 21.2587,25.02663 36.4961,27.59375 8.2969,1.39787 7.6588,1.39273 15.6738,0.0801 26.4681,-4.33484 44.9553,-27.33486 42.9785,-53.47266 -2.0106,-26.58443 -23.5653,-46.57031 -50.2266,-46.57031 z m 215.4375,50.02539 c 35.9411,0.0404 48.3603,3.01259 59.6172,14.26953 8.3088,8.30879 10.9724,15.84471 10.3594,29.31641 -0.8352,18.35511 -9.5429,29.19484 -28.3691,35.3164 -7.2144,2.34581 -12.0039,2.78023 -35.9785,3.27149 -15.2111,0.31169 -27.9493,0.0849 -28.3067,-0.50391 -0.3574,-0.58885 -1.0629,-18.36183 -1.5683,-39.49609 -0.7186,-30.045 -0.5777,-38.83741 0.6464,-40.3125 1.2892,-1.55335 5.457,-1.88173 23.5996,-1.86133 z m 231.37702,6.33984 c -0.3657,-0.0249 -0.7049,0.18927 -1.0566,0.57227 -2.273,2.4745 -14.1958,35.51732 -13.4844,37.37109 0.6107,1.59145 3.2065,1.94141 14.3828,1.94141 9.3985,0 14.0292,-0.48557 14.9043,-1.5625 0.9001,-1.10787 -0.6813,-6.62684 -5.4375,-18.9668 -5.6512,-14.66254 -7.7237,-19.24738 -9.3086,-19.35547 z m -220.93752,14.94922 c -6.564,-0.0649 -6.5293,3.1508 -6.5293,20.61133 0,9.82833 0.3702,18.83344 0.8223,20.01172 0.7118,1.85482 2.139,2.053 10.6347,1.4707 16.7696,-1.14941 24.791,-7.6753 24.791,-20.15625 0,-13.17645 -7.4622,-19.84695 -24.039,-21.50195 -2.2992,-0.22955 -4.1649,-0.42057 -5.6797,-0.43555 z"
     style="fill:#ffffff" />
  <path
     d="m 114.86742,190.05702 0,-160.617419 66.6,0 c 22.56,0 42.6,2.52 60.12,7.56 17.76,5.04 32.64,12.6 44.64,22.68 12.24,10.08 21.48,22.68 27.72,37.8 6.48,14.879999 9.72,32.159999 9.72,51.839999 0,19.68 -3.24,37.08 -9.72,52.2 -6.24,14.88 -15.48,27.36 -27.72,37.44 -12,10.08 -26.88,17.76 -44.64,23.04 -17.52,5.04 -37.56,7.56 -60.12,7.56 l -18.38186,0 z m 45.36,42.06258 0,-165.239999 21.24,0 c 30.48,0 54.12,6.96 70.92,20.88 17.04,13.679999 25.56,34.199999 25.56,61.559999 0,27.36 -8.52,48 -25.56,61.92 -16.8,13.92 -40.44,20.88 -70.92,20.88 z m -9.36,8.64 30.6,0 c 35.04,0 61.44,-7.92 79.2,-23.76 18,-16.08 27,-38.64 27,-67.68 0,-29.04 -9,-51.48 -27,-67.319999 -17.76,-15.84 -44.16,-23.76 -79.2,-23.76 l -30.6,0 z m 40.68,-39.6 c 18,0 31.92,-4.2 41.76,-12.6 9.84,-8.64 14.76,-21.72 14.76,-39.24 0,-17.52 -4.92,-30.48 -14.76,-38.88 -9.84,-8.4 -23.76,-12.599999 -41.76,-12.599999 z"
     style="font-style:normal;font-variant:normal;font-weight:normal;font-stretch:normal;font-size:360px;line-height:125%;font-family:Phosphate;-inkscape-font-specification:Phosphate;letter-spacing:0px;word-spacing:0px;fill:#000000;fill-opacity:1;stroke:none;stroke-width:1px;stroke-linecap:butt;stroke-linejoin:miter;stroke-opacity:1"
     id="doc-d" />
  <path
     d="m 338.2033,149.2233 q 0,-25.92 9.72,-48.96 10.08,-23.039998 27,-39.959998 17.28,-17.28 40.32,-27 23.04,-10.08 48.96,-10.08 25.92,0 48.96,10.08 23.04,9.72 39.96,27 17.28,16.92 27,39.959998 10.08,23.04 10.08,48.96 0,25.92 -10.08,48.96 -9.72,23.04 -27,40.32 -16.92,16.92 -39.96,27 -23.04,9.72 -48.96,9.72 -25.92,0 -48.96,-9.72 -23.04,-10.08 -40.32,-27 -16.92,-17.28 -27,-40.32 -9.72,-23.04 -9.72,-48.96 z m 33.84,0 q 0,19.08 7.2,36 7.2,16.56 19.8,29.16 12.6,12.6 29.16,19.8 16.92,7.2 36,7.2 19.08,0 35.64,-7.2 16.92,-7.2 29.52,-19.8 12.6,-12.6 19.8,-29.16 7.2,-16.92 7.2,-36 0,-19.08 -7.2,-35.64 -7.2,-16.919998 -19.8,-29.519998 -12.6,-12.6 -29.52,-19.8 -16.56,-7.2 -35.64,-7.2 -19.08,0 -36,7.2 -16.56,7.2 -29.16,19.8 -12.6,12.6 -19.8,29.519998 -7.2,16.56 -7.2,35.64 z m 41.76,0 q 0,10.44 3.96,19.8 3.96,9 10.8,15.84 6.84,6.84 15.84,10.8 9.36,3.96 19.8,3.96 10.44,0 19.44,-3.96 9.36,-3.96 16.2,-10.8 6.84,-6.84 10.8,-15.84 3.96,-9.36 3.96,-19.8 0,-10.44 -3.96,-19.44 -3.96,-9.36 -10.8,-16.2 -6.84,-6.84 -16.2,-10.8 -9,-3.959998 -19.44,-3.959998 -10.44,0 -19.8,3.959998 -9,3.96 -15.84,10.8 -6.84,6.84 -10.8,16.2 -3.96,9 -3.96,19.44 z m 50.4,82.8 q -17.28,0 -32.4,-6.48 -14.76,-6.48 -26.28,-17.64 -11.16,-11.52 -17.64,-26.28 -6.48,-15.12 -6.48,-32.4 0,-17.28 6.48,-32.04 6.48,-15.12 17.64,-26.279998 11.52,-11.52 26.28,-18 15.12,-6.48 32.4,-6.48 17.28,0 32.04,6.48 15.12,6.48 26.28,18 11.52,11.159998 18,26.279998 6.48,14.76 6.48,32.04 0,17.28 -6.48,32.4 -6.48,14.76 -18,26.28 -11.16,11.16 -26.28,17.64 -14.76,6.48 -32.04,6.48 z"
     style="font-style:normal;font-variant:normal;font-weight:normal;font-stretch:normal;font-size:360px;line-height:125%;font-family:Phosphate;-inkscape-font-specification:Phosphate;letter-spacing:0px;word-spacing:0px;fill:#000000;fill-opacity:1;stroke:none;stroke-width:1px;stroke-linecap:butt;stroke-linejoin:miter;stroke-opacity:1"
     id="doc-o" />
  <path
     d="m 649.14441,150.43134 c 0,-11.52 1.92,-22.32 5.76,-32.4 4.08,-10.08 9.72,-18.84 16.92,-26.28 7.2,-7.44 15.96,-13.32 26.28,-17.64 10.32,-4.32 21.84,-6.48 34.56,-6.48 6.24,0 11.76,0.48 16.56,1.44 5.04,0.72 9.24,1.68 12.6,2.88 4.08,1.2 7.56,2.64 10.44,4.32 l 5.04,-8.64 c -3.84,-1.68 -7.92,-3.24 -12.24,-4.68 -4.08,-1.2 -8.76,-2.28 -14.04,-3.24 -5.28,-0.96 -11.4,-1.44 -18.36,-1.44 -12.24,0 -24,2.16 -35.28,6.48 -11.04,4.32 -20.88,10.56 -29.52,18.72 -8.4,7.92 -15.24,17.64 -20.52,29.16 -5.04,11.28 -7.56,23.88 -7.56,37.8 0,14.16 2.4,26.88 7.2,38.16 5.04,11.28 11.88,21 20.52,29.16 8.64,7.92 18.72,14.04 30.24,18.36 11.52,4.32 23.76,6.48 36.72,6.48 7.2,0 13.68,-0.6 19.44,-1.8 5.76,-1.2 10.68,-2.52 14.76,-3.96 4.56,-1.68 8.64,-3.6 12.24,-5.76 l -5.04,-8.64 c -3.12,2.16 -6.72,3.96 -10.8,5.4 -3.6,1.44 -7.92,2.76 -12.96,3.96 -5.04,0.96 -10.92,1.44 -17.64,1.44 -13.2,0 -25.08,-2.16 -35.64,-6.48 -10.56,-4.32 -19.56,-10.2 -27,-17.64 -7.2,-7.44 -12.84,-16.2 -16.92,-26.28 -3.84,-10.08 -5.76,-20.88 -5.76,-32.4 z m -45.36,0 c 0,-19.2 3.36,-36.48 10.08,-51.84 6.72,-15.6 15.84,-28.92 27.36,-39.96 11.52,-11.04 24.96,-19.44 40.32,-25.2 15.36,-6 31.68,-9 48.96,-9 13.68,0 25.8,1.32 36.36,3.96 10.8,2.64 20.04,5.64 27.72,9 8.88,3.84 16.56,8.04 23.04,12.6 l -37.8,66.6 c -3.84,-2.88 -8.04,-5.64 -12.6,-8.28 -4.08,-1.92 -9,-3.72 -14.76,-5.4 -5.52,-1.92 -11.88,-2.88 -19.08,-2.88 -7.44,0 -14.28,1.32 -20.52,3.96 -6.24,2.64 -11.76,6.24 -16.56,10.8 -4.56,4.56 -8.16,9.96 -10.8,16.2 -2.64,6 -3.96,12.48 -3.96,19.44 0,6.96 1.32,13.56 3.96,19.8 2.88,6 6.72,11.28 11.52,15.84 4.8,4.56 10.44,8.16 16.92,10.8 6.48,2.64 13.56,3.96 21.24,3.96 7.68,0 14.52,-0.96 20.52,-2.88 6,-1.92 11.04,-4.08 15.12,-6.48 4.8,-2.64 9,-5.76 12.6,-9.36 l 37.8,66.6 c -6.48,5.28 -23.04,10.04 -23.04,10.04 l -25.37443,1.61175 -2.34557,11.74825 c 0,0 -23.16,4.32 -37.08,4.32 -18.72,0 -36,-3 -51.84,-9 -15.84,-6.24 -29.52,-14.88 -41.04,-25.92 -11.52,-11.04 -20.52,-24.24 -27,-39.6 -6.48,-15.6 -9.72,-32.76 -9.72,-51.48 z"
     style="font-style:normal;font-variant:normal;font-weight:normal;font-stretch:normal;font-size:360px;line-height:125%;font-family:Phosphate;-inkscape-font-specification:Phosphate;letter-spacing:0px;word-spacing:0px;fill:#000000;fill-opacity:1;stroke:none;stroke-width:1px;stroke-linecap:butt;stroke-linejoin:miter;stroke-opacity:1"
     id="doc-c" />
  <path
     d="m 336.14855,390.01064 c 9.36,0 18.48,-0.96 27.36,-2.88 l 34.2,57.6 11.16,0 -36,-60.48 c 12.96,-4.56 23.28,-11.52 30.96,-20.88 7.68,-9.6 11.52,-21.96 11.52,-37.08 0,-10.56 -2.04,-19.8 -6.12,-27.72 -4.08,-7.92 -9.72,-14.52 -16.92,-19.8 -6.96,-5.52 -15.24,-9.6 -24.84,-12.24 -9.6,-2.88 -20.04,-4.32 -31.32,-4.32 l -38.88,0 0,182.52 9.36,0 0,-54.72 z m -29.52,-8.64 0,-110.52 29.52,0 c 21.84,0 38.88,4.8 51.12,14.4 12.48,9.6 18.72,23.28 18.72,41.04 0,17.76 -6.24,31.44 -18.72,41.04 -12.24,9.36 -29.28,14.04 -51.12,14.04 z m -45.36,-147.96 82.8,0 c 15.36,0 29.52,2.04 42.48,6.12 13.2,4.08 24.6,10.08 34.2,18 9.6,7.92 17.04,17.76 22.32,29.52 5.52,11.52 8.28,24.84 8.28,39.96 0,12 -1.68,22.2 -5.04,30.6 -3.36,8.4 -7.08,15.36 -11.16,20.88 -4.8,6.24 -10.2,11.52 -16.2,15.84 l 45,79.2 -90,0 -36,-60.84 0,60.84 -51.34078,0 -25.33922,-42.01639 z m 76.68,118.08 3.96,0 c 9.12,0 16.8,-2.04 23.04,-6.12 6.48,-4.08 9.72,-10.92 9.72,-20.52 0,-9.6 -3.24,-16.44 -9.72,-20.52 -6.24,-4.08 -13.92,-6.12 -23.04,-6.12 l -3.96,0 z"
     style="font-style:normal;font-variant:normal;font-weight:normal;font-stretch:normal;font-size:360px;line-height:125%;font-family:Phosphate;-inkscape-font-specification:Phosphate;letter-spacing:0px;word-spacing:0px;fill:#000000;fill-opacity:1;stroke:none;stroke-width:1px;stroke-linecap:butt;stroke-linejoin:miter;stroke-opacity:1"
     id="roba-r" />
  <path
     d="m 466.60442,351.87879 q 0,-25.92 9.72,-48.96 10.08,-23.04 27,-39.96 17.28,-17.28 40.32,-27 23.04,-10.08 48.96,-10.08 25.92,0 48.96,10.08 23.04,9.72 39.96,27 17.28,16.92 27,39.96 10.08,23.04 10.08,48.96 0,25.92 -10.08,48.96 -9.72,23.04 -27,40.32 -16.92,16.92 -39.96,27 -23.04,9.72 -48.96,9.72 -25.92,0 -48.96,-9.72 -23.04,-10.08 -40.32,-27 -16.92,-17.28 -27,-40.32 -9.72,-23.04 -9.72,-48.96 z m 33.84,0 q 0,19.08 7.2,36 7.2,16.56 19.8,29.16 12.6,12.6 29.16,19.8 16.92,7.2 36,7.2 19.08,0 35.64,-7.2 16.92,-7.2 29.52,-19.8 12.6,-12.6 19.8,-29.16 7.2,-16.92 7.2,-36 0,-19.08 -7.2,-35.64 -7.2,-16.92 -19.8,-29.52 -12.6,-12.6 -29.52,-19.8 -16.56,-7.2 -35.64,-7.2 -19.08,0 -36,7.2 -16.56,7.2 -29.16,19.8 -12.6,12.6 -19.8,29.52 -7.2,16.56 -7.2,35.64 z m 41.76,0 q 0,10.44 3.96,19.8 3.96,9 10.8,15.84 6.84,6.84 15.84,10.8 9.36,3.96 19.8,3.96 10.44,0 19.44,-3.96 9.36,-3.96 16.2,-10.8 6.84,-6.84 10.8,-15.84 3.96,-9.36 3.96,-19.8 0,-10.44 -3.96,-19.44 -3.96,-9.36 -10.8,-16.2 -6.84,-6.84 -16.2,-10.8 -9,-3.96 -19.44,-3.96 -10.44,0 -19.8,3.96 -9,3.96 -15.84,10.8 -6.84,6.84 -10.8,16.2 -3.96,9 -3.96,19.44 z m 50.4,82.8 q -17.28,0 -32.4,-6.48 -14.76,-6.48 -26.28,-17.64 -11.16,-11.52 -17.64,-26.28 -6.48,-15.12 -6.48,-32.4 0,-17.28 6.48,-32.04 6.48,-15.12 17.64,-26.28 11.52,-11.52 26.28,-18 15.12,-6.48 32.4,-6.48 17.28,0 32.04,6.48 15.12,6.48 26.28,18 11.52,11.16 18,26.28 6.48,14.76 6.48,32.04 0,17.28 -6.48,32.4 -6.48,14.76 -18,26.28 -11.16,11.16 -26.28,17.64 -14.76,6.48 -32.04,6.48 z"
     style="font-style:normal;font-variant:normal;font-weight:normal;font-stretch:normal;font-size:360px;line-height:125%;font-family:Phosphate;-inkscape-font-specification:Phosphate;letter-spacing:0px;word-spacing:0px;fill:#000000;fill-opacity:1;stroke:none;stroke-width:1px;stroke-linecap:butt;stroke-linejoin:miter;stroke-opacity:1"
     id="roba-o" />
  <path
     d="m 737.35739,260.09509 58.98,-28 34.98,0 c 12,0 22.92,1.44 32.76,4.32 10.08,2.64 18.6,6.72 25.56,12.24 7.2,5.28 12.72,12 16.56,20.16 4.08,7.92 6.12,17.28 6.12,28.08 0,7.68 -0.96,14.28 -2.88,19.8 -1.92,5.28 -3.96,9.72 -6.12,13.32 -2.64,4.32 -5.64,7.92 -9,10.8 5.28,3.36 10.08,7.68 14.4,12.96 3.6,4.56 6.84,10.32 9.72,17.28 3.12,6.96 4.68,15.48 4.68,25.56 0,11.52 -2.04,21.96 -6.12,31.32 -4.08,9.36 -9.96,17.4 -17.64,24.12 -7.44,6.48 -16.68,11.52 -27.72,15.12 -10.8,3.36 -22.92,5.04 -36.36,5.04 l -97.92,0 z m 82.8,155.6 c 18.24,0 27.36,-6.96 27.36,-20.88 0,-13.92 -9.12,-20.88 -27.36,-20.88 l -8.64,0 0,41.76 z m 18,-110.52 c 0,-11.04 -6,-16.56 -18,-16.56 l -8.64,0 0,33.12 8.64,0 c 12,0 18,-5.52 18,-16.56 z m -12.96,138.24 c 21.12,0 36.72,-4.56 46.8,-13.68 10.08,-9.12 15.12,-21.24 15.12,-36.36 0,-9.84 -2.16,-17.64 -6.48,-23.4 -4.08,-6 -8.52,-10.68 -13.32,-14.04 -6,-3.84 -12.6,-6.48 -19.8,-7.92 5.76,-1.68 10.92,-4.32 15.48,-7.92 4.08,-3.12 7.68,-7.32 10.8,-12.6 3.36,-5.52 5.04,-12.48 5.04,-20.88 0,-15.12 -4.8,-26.52 -14.4,-34.2 -9.6,-7.68 -22.68,-11.52 -39.24,-11.52 l -51.84,0 0,182.52 z m -42.48,-8.64 0,-82.44 42.12,0 c 7.44,0 14.28,0.84 20.52,2.52 6.48,1.44 12.12,3.84 16.92,7.2 4.8,3.12 8.52,7.32 11.16,12.6 2.88,5.28 4.32,11.52 4.32,18.72 0,14.64 -4.92,25.2 -14.76,31.68 -9.6,6.48 -22.32,9.72 -38.16,9.72 z m 0,-91.08 0,-74.16 42.48,0 c 15.6,0 26.76,3.48 33.48,10.44 6.96,6.72 10.44,15.6 10.44,26.64 0,11.04 -3.48,20.04 -10.44,27 -6.72,6.72 -17.88,10.08 -33.48,10.08 z"
     style="font-style:normal;font-variant:normal;font-weight:normal;font-stretch:normal;font-size:360px;line-height:125%;font-family:Phosphate;-inkscape-font-specification:Phosphate;letter-spacing:0px;word-spacing:0px;fill:#000000;fill-opacity:1;stroke:none;stroke-width:1px;stroke-linecap:butt;stroke-linejoin:miter;stroke-opacity:1"
     id="roba-b" />
  <path
     d="m 1009.5481,234.09509 57.6,0 91.08,240.12 -75.6,0 -7.92,-21.6 -72.72,0 -7.92001,21.6 -75.6,0 91.08001,-240.12 z m 45,165.6 -16.2,-42.12 -16.2,42.12 32.4,0 z m -82.44001,45.72 6.84,-18 118.80001,0 6.84,18 10.08,0 -69.48,-182.52 -13.68,0 -69.48001,182.52 10.08,0 z m 66.24001,-173.88 56.16,147.24 -112.32001,0 56.16001,-147.24 z"
     style="font-style:normal;font-variant:normal;font-weight:normal;font-stretch:normal;font-size:360px;line-height:125%;font-family:Phosphate;-inkscape-font-specification:Phosphate;letter-spacing:0px;word-spacing:0px;fill:#000000;fill-opacity:1;stroke:none;stroke-width:1px;stroke-linecap:butt;stroke-linejoin:miter;stroke-opacity:1"
     id="roba-a" />
</svg>
